<svg width="1569" height="369" viewBox="0 0 1569 369" fill="none" xmlns="http://www.w3.org/2000/svg">
<rect width="369" height="369" rx="50" fill="#1E1E1E"/>
<path d="M185.004 244.68L55.5123 183.795L315.314 185.568L185.004 244.68Z" fill="white"/>
<path d="M185.004 303.681L55.5123 242.795L315.314 244.569L185.004 303.681Z" fill="white"/>
<path d="M183.998 65.709L314.184 125.094L54.3796 126.322L183.998 65.709Z" fill="white"/>
<path d="M185.001 185.07L54.6424 125.593L314.448 124.551L185.001 185.07Z" fill="white"/>
<path d="M467.42 296V77.8182H598.244V101.256H493.841V174.977H588.443V198.415H493.841V296H467.42ZM732.957 229.097V132.364H758.099V296H732.957V268.301H731.252C727.417 276.611 721.451 283.678 713.354 289.501C705.258 295.254 695.031 298.131 682.673 298.131C672.445 298.131 663.354 295.893 655.4 291.419C647.445 286.874 641.195 280.055 636.65 270.964C632.104 261.803 629.832 250.261 629.832 236.341V132.364H654.974V234.636C654.974 246.568 658.312 256.085 664.988 263.188C671.735 270.29 680.329 273.841 690.769 273.841C697.019 273.841 703.376 272.243 709.839 269.047C716.373 265.851 721.842 260.95 726.245 254.345C730.719 247.74 732.957 239.324 732.957 229.097ZM829.29 197.562V296H804.148V132.364H828.438V157.932H830.569C834.404 149.622 840.228 142.946 848.04 137.903C855.853 132.79 865.938 130.233 878.296 130.233C889.375 130.233 899.07 132.506 907.38 137.051C915.689 141.526 922.152 148.344 926.769 157.506C931.385 166.597 933.694 178.102 933.694 192.023V296H908.551V193.727C908.551 180.872 905.213 170.858 898.537 163.685C891.861 156.44 882.699 152.818 871.051 152.818C863.026 152.818 855.853 154.558 849.532 158.038C843.282 161.518 838.346 166.597 834.723 173.273C831.101 179.949 829.29 188.045 829.29 197.562ZM1041.43 299.409C1027.79 299.409 1015.75 295.964 1005.31 289.075C994.871 282.115 986.703 272.314 980.808 259.672C974.913 246.959 971.966 231.938 971.966 214.608C971.966 197.42 974.913 182.506 980.808 169.864C986.703 157.222 994.906 147.456 1005.42 140.567C1015.93 133.678 1028.07 130.233 1041.85 130.233C1052.51 130.233 1060.92 132.009 1067.1 135.56C1073.35 139.04 1078.11 143.017 1081.38 147.491C1084.71 151.895 1087.31 155.517 1089.15 158.358H1091.28V77.8182H1116.43V296H1092.14V270.858H1089.15C1087.31 273.841 1084.68 277.605 1081.27 282.151C1077.86 286.625 1073 290.638 1066.67 294.189C1060.35 297.669 1051.94 299.409 1041.43 299.409ZM1044.84 276.824C1054.92 276.824 1063.44 274.196 1070.4 268.94C1077.36 263.614 1082.65 256.263 1086.28 246.888C1089.9 237.442 1091.71 226.54 1091.71 214.182C1091.71 201.966 1089.93 191.277 1086.38 182.115C1082.83 172.882 1077.58 165.709 1070.62 160.595C1063.66 155.411 1055.06 152.818 1044.84 152.818C1034.18 152.818 1025.3 155.553 1018.2 161.021C1011.17 166.419 1005.88 173.77 1002.33 183.074C998.848 192.307 997.108 202.676 997.108 214.182C997.108 225.83 998.884 236.412 1002.43 245.929C1006.06 255.375 1011.38 262.903 1018.41 268.514C1025.52 274.054 1034.32 276.824 1044.84 276.824ZM1159.47 296V77.8182H1212.2V170.077H1215.08L1287.2 77.8182H1349.31L1271.97 175.19L1350.69 296H1287.63L1233.29 210.24L1212.2 236.874V296H1159.47ZM1380.36 296V132.364H1432.46V296H1380.36ZM1406.47 113.294C1399.15 113.294 1392.86 110.879 1387.61 106.05C1382.35 101.149 1379.73 95.2543 1379.73 88.3651C1379.73 81.5469 1382.35 75.723 1387.61 70.8935C1392.86 65.9929 1399.15 63.5426 1406.47 63.5426C1413.85 63.5426 1420.14 65.9929 1425.32 70.8935C1430.58 75.723 1433.21 81.5469 1433.21 88.3651C1433.21 95.2543 1430.58 101.149 1425.32 106.05C1420.14 110.879 1413.85 113.294 1406.47 113.294ZM1557.98 132.364V170.716H1454.75V132.364H1557.98ZM1476.38 93.1591H1528.47V244.544C1528.47 247.74 1528.97 250.332 1529.96 252.321C1531.03 254.239 1532.56 255.624 1534.55 256.476C1536.53 257.257 1538.91 257.648 1541.68 257.648C1543.67 257.648 1545.77 257.47 1547.97 257.115C1550.24 256.689 1551.95 256.334 1553.08 256.05L1560.97 293.656C1558.48 294.366 1554.96 295.254 1550.42 296.32C1545.94 297.385 1540.58 298.06 1534.33 298.344C1522.12 298.912 1511.64 297.491 1502.91 294.082C1494.24 290.602 1487.6 285.205 1482.98 277.889C1478.44 270.574 1476.24 261.376 1476.38 250.297V93.1591Z" fill="#1E1E1E"/>
</svg>
